<svg version="1.1" width="360pt" height="288pt" id="svg10" viewBox="0 0 360 288" sodipodi:docname="Atmami Logo.cdr" xmlns:inkscape="http://www.inkscape.org/namespaces/inkscape" xmlns:sodipodi="http://sodipodi.sourceforge.net/DTD/sodipodi-0.dtd" xmlns="http://www.w3.org/2000/svg" xmlns:svg="http://www.w3.org/2000/svg">
  <defs id="defs10"></defs>
  <sodipodi:namedview id="namedview10" pagecolor="#ffffff" bordercolor="#000000" borderopacity="0.25" inkscape:showpageshadow="2" inkscape:pageopacity="0.0" inkscape:pagecheckerboard="0" inkscape:deskcolor="#d1d1d1" inkscape:document-units="pt"></sodipodi:namedview>
  <g id="Layer1000">
    <g id="Layer1001">
      <path d="m 172.0877,76.8538 c -1.099,1.2036 -3.8357,6.8397 -6.5927,10.3449 -1.0257,1.304 -1.5043,1.6801 -2.4515,2.9935 -4.1949,5.8158 -22.6961,20.1302 -26.9177,6.3916 -1.9461,-6.3341 0.2286,-13.4824 1.3558,-19.5442 -1.2893,0.8613 -1.7643,1.7822 -2.5294,2.9611 -2.1329,3.286 -3.3957,5.1745 -4.9577,8.9276 -8.2427,19.8004 -5.0308,42.0997 8.2975,58.0316 7.9753,9.5332 25.2448,19.8515 37.048,19.0299 -6.9373,-1.3483 -15.4826,-9.8228 -18.1661,-14.5668 -8.3892,-14.834 -4.7664,-35.7007 6.0796,-46.658 6.5359,-6.6041 10.2071,-18.8053 8.8342,-27.9112 z" style="fill:#008289;fill-rule:evenodd" id="path1" data-index="0"></path>
      <path d="m 207.85,63.1645 c 3.7127,6.7292 7.2782,11.2717 9.2693,20.814 1.9216,9.21 0.8641,18.6767 -2.2162,26.8579 -1.4705,3.9053 -2.8265,6.7803 -5.0687,10.2881 -2.2434,3.5092 -7.0883,9.5834 -10.1845,12.0933 -6.5686,5.3249 -12.6644,7.8782 -13.6546,8.689 11.2108,2.2404 24.9092,-0.5317 32.7593,-5.9231 27.6159,-18.9662 15.8982,-63.7861 -10.9046,-72.8192 z" style="fill: rgb(0, 130, 137); fill-rule: evenodd; stroke-width: 2px; stroke: rgb(0, 130, 137); visibility: visible; opacity: 1;" id="path2" data-index="1"></path>
      <path d="m 156.9656,133.2686 c 0.6097,8.7538 4.9668,20.2785 11.1424,25.0731 23.4897,18.2391 56.8688,-2.4965 63.7609,-26.5105 -1.6211,0.8845 -1.9587,1.8543 -3.8215,3.4992 -1.402,1.2382 -2.1201,1.9067 -3.6411,3.2885 -1.8385,1.6701 -5.4502,4.1755 -8.1621,5.7341 -34.4841,19.8177 -56.1585,-9.2386 -59.2786,-11.0844 z" style="fill:#008289;fill-rule:evenodd" id="path3" data-index="2"></path>
      <path d="m 150.5254,65.3285 c 9.7371,-1.7279 15.0818,-3.903 25.8305,-2.5372 14.6984,1.8679 26.9363,12.908 30.1229,27.4126 2.5494,11.6047 -0.1583,19.3299 -0.8973,25.6905 4.0939,-6.0873 8.1686,-14.9952 7.6871,-26.5827 -1.0975,-26.399 -26.4599,-39.8035 -50.8311,-30.5563 -3.2312,1.2261 -9.756,3.931 -11.9121,6.5731 z" style="fill:#008289;fill-rule:evenodd" id="path4" data-index="3"></path>
      <path d="m 189.0647,133.056 c 2.2175,-0.4124 6.6889,-4.2616 7.9968,-5.3842 1.937,-1.6623 1.5496,-2.0367 1.5271,-5.0862 -0.0619,-8.3904 0.7523,-25.9893 -0.2438,-32.1891 l -9.3531,0.1282 z" style="fill:#e1a500;fill-rule:evenodd" id="path5" data-index="4"></path>
      <path d="m 175.1521,139.2806 c 1.9513,-0.0875 7.4953,-2.4764 9.3136,-3.4934 l -0.1233,-30.4629 -9.3488,-0.004 z" style="fill:#e1a500;fill-rule:evenodd" id="path6" data-index="5"></path>
      <path d="m 155.3325,86.8404 c 4.8349,-9.2626 -7.6978,-14.5321 -11.3901,-5.2942 -4.0081,10.0272 7.0559,13.598 11.3901,5.2942 z" style="fill:#e1a500;fill-rule:evenodd" id="path7" data-index="6"></path>
      <path d="m 160.8267,127.0165 c 0.3352,3.2501 8.1953,9.8728 9.603,10.1372 l -0.0962,-19.2645 c -1.5351,-0.202 -8.5277,-0.5276 -9.4432,0.3124 -0.5413,0.4966 -0.2394,7.1087 -0.0636,8.8149 z" style="fill:#e1a500;fill-rule:evenodd" id="path8" data-index="7"></path>
    </g>
    <path d="M 94.6964,213.082 78.4165,179.1581 h 3.1569 c 0.4289,1.0999 1.0341,2.486 1.804,4.1579 0.8691,1.826 1.353,2.9151 1.4519,3.2561 0.11,0.1868 0.2092,0.4179 0.2971,0.671 l 7.5679,15.7079 c 2.651,5.4561 5.4562,8.767 8.4481,9.9332 v 0.5938 c -2.9259,-0.2639 -5.0712,-0.396 -6.446,-0.396 z M 71.6845,196.846 h 9.735 l -4.6752,-9.79 z m 13.7608,8.4371 -2.8709,-5.995 h -12.155 l -3.058,5.995 c 0,0 -0.055,0.132 -0.1539,0.4181 -0.0221,0.0218 -0.1871,0.3299 -0.4842,0.9348 -0.4618,0.902 -0.682,1.8261 -0.682,2.772 0,1.628 0.902,2.7831 2.7062,3.4762 v 0.5938 c -0.3631,0 -1.0012,-0.055 -1.9032,-0.165 -1.2648,-0.1539 -2.4088,-0.231 -3.4097,-0.231 -0.9241,0 -2.0682,0.0661 -3.4212,0.1979 -0.9241,0.1321 -1.54,0.1981 -1.8371,0.1981 v -0.5938 c 2.3652,-1.1991 4.5102,-3.6851 6.4463,-7.4472 l 10.7027,-20.8338 c -0.8138,-1.6501 -1.9358,-2.9262 -3.3658,-3.8282 -1.4301,-0.902 -3.102,-1.3969 -5.0162,-1.4848 v -0.5941 h 1.133 c 1.0012,0 2.387,0.066 4.1581,0.1981 1.8479,0.1758 3.047,0.2639 3.608,0.2639 l 16.2799,33.9239 c -2.09,0.044 -4.5978,0.176 -7.5129,0.396 v -0.5938 c 1.6279,-0.2753 2.442,-1.1552 2.442,-2.6402 0,-1.0999 -0.5281,-2.7499 -1.6061,-4.9609 z m 32.2081,7.7989 h -0.836 v -33.9239 h 11.6161 c 2.1229,0 4.2129,-0.1321 6.2811,-0.3849 0,0.4067 -0.0332,1.1437 -0.0993,2.2218 -0.066,0.979 -0.0989,2.222 -0.0989,3.6961 0,0.9459 -0.055,1.9029 -0.1539,2.8709 h -0.781 c -0.0442,-1.7708 -0.4841,-3.223 -1.3201,-4.3889 -0.858,-1.1769 -2.673,-1.7711 -5.445,-1.7711 h -7.3148 v 23.0451 c 0,2.6399 0.3739,4.631 1.133,5.9618 0.7478,1.3312 1.9029,2.1561 3.4758,2.4753 v 0.5938 c -3.8061,-0.2639 -5.9621,-0.396 -6.457,-0.396 z m -13.86,-33.9239 h 10.637 v 33.9239 h -0.968 c -1.397,0 -3.4869,0.1321 -6.2589,0.396 v -0.5938 c 1.7818,-0.4513 3.014,-1.3641 3.6739,-2.7392 0.6492,-1.3529 0.9681,-3.6079 0.9681,-6.7541 V 181.402 h -8.2171 c -2.09,0 -3.5529,0.4292 -4.411,1.2869 -0.8688,0.8581 -1.584,2.486 -2.1668,4.8731 h -0.737 c -0.0221,-0.286 -0.0332,-0.5828 -0.0332,-0.9131 0,-0.4288 0.044,-0.9788 0.1321,-1.6389 0.2529,-2.2989 0.385,-4.3779 0.385,-6.2368 1.133,0.1539 2.552,0.2418 4.2571,0.286 z m 57.6292,22.407 10.3178,-22.407 h 2.486 l 1.5072,33.9239 h -1.2541 c -0.902,0 -2.0789,0.0661 -3.5421,0.1979 l -2.134,0.1981 v -0.5938 c 2.5849,-0.7152 3.8722,-3.0252 3.8722,-6.9302 0,0.0661 -0.0222,-0.6599 -0.0661,-2.1671 l -0.8359,-18.7877 -10.3181,22.6049 -13.343,-28.446 h 2.7391 z m 16.6977,11.5169 -1.5397,-33.9239 h 1.0888 c 1.5732,0 3.7732,-0.1539 6.6109,-0.462 v 0.5941 c -1.4848,0.2529 -2.6178,0.9459 -3.4208,2.0679 -0.836,1.1109 -1.2541,2.4639 -1.2541,4.0589 l 0.0661,3.443 0.7038,15.444 c 0.1321,2.8159 0.572,4.8951 1.3201,6.226 0.7591,1.353 1.9361,2.1339 3.5529,2.3542 v 0.5938 c -3.1787,-0.2639 -5.5547,-0.396 -7.128,-0.396 z m -32.6477,-33.9239 14.6959,31.2398 -1.485,3.0801 -13.343,-28.457 -0.8359,19.2501 c -0.044,1.936 -0.0661,2.7388 -0.0661,2.387 0,3.7619 1.4519,5.8408 4.345,6.2261 v 0.5938 c -0.0221,0 -0.3189,-0.0439 -0.902,-0.1321 -2.3981,-0.176 -3.9821,-0.2639 -4.752,-0.2639 -1.0341,0 -2.882,0.1321 -5.5661,0.396 v -0.5938 c 2.717,-0.7152 4.202,-3.5091 4.4331,-8.3821 l 0.9351,-22.0221 c -1.2651,-1.584 -3.058,-2.6509 -5.3682,-3.1898 v -0.5941 c 1.7382,0.1981 3.5861,0.3081 5.5661,0.3299 z m 78.7048,33.9239 -16.28,-33.9239 h 3.157 c 0.4289,1.0999 1.0341,2.486 1.804,4.1579 0.8691,1.826 1.3529,2.9151 1.4519,3.2561 0.11,0.1868 0.2092,0.4179 0.297,0.671 l 7.568,15.7079 c 2.6509,5.4561 5.4561,8.767 8.4481,9.9332 v 0.5938 c -2.926,-0.2639 -5.0712,-0.396 -6.446,-0.396 z m -23.012,-16.236 h 9.7351 l -4.6752,-9.79 z m 13.7608,8.4371 -2.8709,-5.995 h -12.155 l -3.058,5.995 c 0,0 -0.055,0.132 -0.1539,0.4181 -0.0221,0.0218 -0.1871,0.3299 -0.4841,0.9348 -0.4618,0.902 -0.6821,1.8261 -0.6821,2.772 0,1.628 0.902,2.7831 2.7063,3.4762 v 0.5938 c -0.3631,0 -1.0012,-0.055 -1.9032,-0.165 -1.2648,-0.1539 -2.4089,-0.231 -3.4098,-0.231 -0.9241,0 -2.0682,0.0661 -3.4211,0.1979 -0.9241,0.1321 -1.5401,0.1981 -1.8372,0.1981 v -0.5938 c 2.3653,-1.1991 4.5102,-3.6851 6.4463,-7.4472 l 10.7028,-20.8338 c -0.8139,-1.6501 -1.9358,-2.9262 -3.3659,-3.8282 -1.4301,-0.902 -3.1019,-1.3969 -5.0162,-1.4848 v -0.5941 h 1.133 c 1.0012,0 2.3871,0.066 4.1582,0.1981 1.8479,0.1758 3.0469,0.2639 3.6079,0.2639 l 16.2799,33.9239 c -2.0899,0.044 -4.5978,0.176 -7.5129,0.396 v -0.5938 c 1.6279,-0.2753 2.442,-1.1552 2.442,-2.6402 0,-1.0999 -0.528,-2.7499 -1.6061,-4.9609 z m 42.0752,-3.718 10.3179,-22.407 h 2.486 l 1.5071,33.9239 h -1.254 c -0.902,0 -2.0789,0.0661 -3.5422,0.1979 l -2.1339,0.1981 v -0.5938 c 2.5849,-0.7152 3.8721,-3.0252 3.8721,-6.9302 0,0.0661 -0.0221,-0.6599 -0.066,-2.1671 l -0.836,-18.7877 -10.3181,22.6049 -13.3429,-28.446 h 2.7391 z m 16.6978,11.5169 -1.5398,-33.9239 h 1.0888 c 1.5732,0 3.7732,-0.1539 6.611,-0.462 v 0.5941 c -1.4848,0.2529 -2.6178,0.9459 -3.4209,2.0679 -0.8359,1.1109 -1.254,2.4639 -1.254,4.0589 l 0.066,3.443 0.7039,15.444 c 0.1321,2.8159 0.572,4.8951 1.3201,6.226 0.7591,1.353 1.936,2.1339 3.5529,2.3542 v 0.5938 c -3.1788,-0.2639 -5.5548,-0.396 -7.128,-0.396 z m -32.6477,-33.9239 14.6959,31.2398 -1.4851,3.0801 -13.3429,-28.457 -0.836,19.2501 c -0.0439,1.936 -0.066,2.7388 -0.066,2.387 0,3.7619 1.4519,5.8408 4.3449,6.2261 v 0.5938 c -0.0221,0 -0.3189,-0.0439 -0.902,-0.1321 -2.3981,-0.176 -3.9821,-0.2639 -4.752,-0.2639 -1.034,0 -2.8819,0.1321 -5.5661,0.396 v -0.5938 c 2.717,-0.7152 4.2021,-3.5091 4.4331,-8.3821 l 0.9352,-22.0221 c -1.2651,-1.584 -3.058,-2.6509 -5.3683,-3.1898 v -0.5941 c 1.7382,0.1981 3.5861,0.3081 5.5661,0.3299 z m 53.7236,33.9239 v -33.9239 c 2.6731,0 5.038,-0.1539 7.0951,-0.462 v 0.5941 c -1.2651,0.2307 -2.321,0.9238 -3.1569,2.0679 -0.8581,1.1769 -1.287,3.619 -1.287,7.3151 v 15.3779 c 0,3.3109 0.451,5.533 1.353,6.677 0.902,1.133 1.9358,1.859 3.0909,2.1561 v 0.5938 c -2.0129,-0.2639 -4.3781,-0.396 -7.0951,-0.396 z m -2.42,-33.9239 v 33.9239 c -1.5508,0 -3.905,0.1321 -7.0619,0.396 v -0.5938 c 1.65,-0.4292 2.8052,-1.3641 3.443,-2.8052 0.6491,-1.419 0.968,-3.9818 0.968,-7.7111 V 187.958 c 0,-2.7938 -0.33,-4.8399 -1.0009,-6.1489 -0.6602,-1.298 -1.804,-2.134 -3.4101,-2.5189 v -0.5941 c 2.6181,0.2531 4.972,0.407 7.0619,0.462 z" style="fill: rgb(209, 152, 31); fill-rule: evenodd; opacity: 1; visibility: visible;" id="path9" data-index="8"></path>
    
  </g>
</svg>